<svg height="512" viewBox="0 0 512 512" width="512" xmlns="http://www.w3.org/2000/svg"><g id="Layer_14" data-name="Layer 14"><path d="m284.03 142.02c-9.16-12.86-19.65-27.26-27.66-37.02a132.953 132.953 0 0 1 -18.8-30.41 56.164 56.164 0 0 0 -6.44-11.28l-.01.01c-6.41 11.06-21.38 12.81-21.38 12.81l21.38 33.55 22.47 41.05v.01a42.883 42.883 0 0 1 9.65 11.19h.01a23.14 23.14 0 0 0 17.51-4.16l3.28-15.74z" fill="#8cc540"/><path d="m266.93 174.77c.24 5-.66 10.62-2.86 17.15-3.86 11.49-16.83 18.42-19.21 30.31-3.82 19.15-12.97 24.91-13.38 25.16l-.01.01c-16.7 3.93-26.95 9.39-32.85 13.59a65.191 65.191 0 0 1 -15.77 8.3v.01a57.95 57.95 0 0 1 -10.89 2.76c-36.04 5.44-42.17-17.11-53.97-53-.93-2.85-1.71-5.62-2.34-8.33-3.64-15.48-2.6-28.73.52-39.63a73.993 73.993 0 0 1 23.56-36.33 79.876 79.876 0 0 1 39.51-14.25 75.439 75.439 0 0 1 38.93 7.48q3.825 1.83 7.74 4.18c11.2 6.77 20.67 12.51 27.68 18.55v.01a42.883 42.883 0 0 1 9.65 11.19h.01a28.211 28.211 0 0 1 3.68 12.84z" fill="#d8ddea"/><path d="m145.99 212.06c-.93-2.85-1.71-5.62-2.34-8.33-3.64-15.48-2.6-28.73.52-39.63a73.993 73.993 0 0 1 23.56-36.33 68.634 68.634 0 0 1 12.858-7.336c-.451.027-.9.051-1.348.086a79.876 79.876 0 0 0 -39.51 14.25 73.993 73.993 0 0 0 -23.56 36.33c-3.12 10.9-4.16 24.15-.52 39.63.63 2.71 1.41 5.48 2.34 8.33 11.8 35.89 17.93 58.44 53.97 53a57.95 57.95 0 0 0 10.89-2.76v-.01a62.54 62.54 0 0 0 7.816-3.429c-27.932.333-33.972-21.244-44.676-53.801z" fill="#c1c7d3"/><path d="m435.36 485.88a4.369 4.369 0 0 1 -2.08 5.23l-17.32 9.36a4.373 4.373 0 0 1 -6.44-3.56c-.62-9.38-2.61-26.32-9.05-37.89a60.868 60.868 0 0 1 -5.55-13.35v-.02s15.13 3.87 31.12-7.56a67.852 67.852 0 0 1 3.09 16.15 130.039 130.039 0 0 0 6.23 31.64z" fill="#575757"/><path d="m386.99 336.15-10.24-33.66a38.4 38.4 0 0 0 -3.78-7.02c-3.25 4.63-25.94 14.55-25.94 14.55l-.01.01c3 2.42 47.9 84.4 47.89 135.62h.01s15.13 3.87 31.12-7.56c-19.891-41.925-39.05-101.94-39.05-101.94z" fill="#8cc540"/><path d="m364.27 283.11-17.44-33.16-40.14-72.09c-2.33-3.1-4.38-7.66-6.07-10.98l-19.86-9.11a23.14 23.14 0 0 1 -17.51 4.16 28.211 28.211 0 0 1 3.68 12.84l38.48 59.93 24.9 35.04 7.48 31.13c-.15 1.48-.3 2.92-.46 4.32a13.953 13.953 0 0 1 2.9.87 24.705 24.705 0 0 1 6.79 3.97l.01-.01s22.69-9.92 25.94-14.55c-3.74-5.87-8.7-12.36-8.7-12.36z" fill="#575757"/><path d="m231.13 63.31-.01.01c-6.41 11.06-21.38 12.81-21.38 12.81a27.8 27.8 0 0 0 -10.81-.25h-.01c-6.23-4.13-16.54-22.59-22.69-34.4a8.261 8.261 0 0 1 6.27-12.01l14.76-1.88a8.261 8.261 0 0 1 8.62 4.98c3.33 7.78 10.01 21.07 18.17 24.69a19.212 19.212 0 0 1 7.08 6.05z" fill="#575757"/><path d="m363.51 339.3c-5.67-.54-12.37.57-15.75.79-10.22.67-15.74 6.55-21.68 13.61.62-.93 7.12-11.43 11.25-48.51a13.953 13.953 0 0 1 2.9.87 24.705 24.705 0 0 1 6.79 3.97 26.2 26.2 0 0 1 7.15 9.08c2.31 4.83 5.62 11.87 9.34 20.19z" fill="#5f636d"/><path d="m352.51 216.93c6.83-8.77 24.29-25.15 46.31-22.42 0 0-8.1 35.86-60.81 39.89a82.486 82.486 0 0 0 14.5-17.47z" fill="#a7d861"/><path d="m394.91 445.65c.01.01.01.01.01.02-8.62 40.22-40.54 39.52-40.54 39.52-.61-16.05 9.55-26.65 19.22-33.07.01 0 .01-.01.02-.01a68.977 68.977 0 0 1 16.76-8.09q2.235.75 4.53 1.63z" fill="#81c83d"/><path d="m373.77 439.9a99.637 99.637 0 0 1 16.61 4.12 68.977 68.977 0 0 0 -16.76 8.09c-.01 0-.01.01-.02.01-9.92 5.02-32.42 13.27-51.17 1.41 0 0 14.72-17.04 45.8-14.31q2.685.225 5.54.68z" fill="#d0db65"/><path d="m337.33 305.19c-4.13 37.08-10.63 47.58-11.25 48.51a.4.4 0 0 1 -.05.07c-2.51 2.99-5.1 6.19-8.15 9.29-4.63 4.7-12.47 7.7-18.47 9.44q-4.305 1.23-8.48 2.87v-.01s-60.8-25.91-9.56-82.3c0 0 7.63-8.79 24.04-15.72a100.657 100.657 0 0 1 19.7-5.97 25.56 25.56 0 0 0 5.2-1.63 23.967 23.967 0 0 0 11.82-11.18 49.688 49.688 0 0 0 2.04-4.71 9.9 9.9 0 0 1 12.54-5.88c8.96 3.2 20.7 10.39 17.7 25.71a10.653 10.653 0 0 1 -5.29 7.26 44.024 44.024 0 0 1 -4.85 2.17c-9.56 3.77-25.58 8.85-26.48 17.76-.15 1.48-.3 2.92-.46 4.32z" fill="#6d7486"/><path d="m353.73 388.71s26.76 10.63 20.04 51.19q-2.85-.45-5.54-.68s-26.71-22.52-14.5-50.51z" fill="#a7d861"/><path d="m356.46 179.5c6.93 13.4 2.37 27.08-3.95 37.43a82.486 82.486 0 0 1 -14.5 17.47c-9.31-40.08 18.45-54.9 18.45-54.9z" fill="#81c83d"/><path d="m305.41 234.7a143.487 143.487 0 0 0 -12.3 18.84q-1.35 2.43-2.85 4.75a85.245 85.245 0 0 1 -40.19 33.03 166.557 166.557 0 0 0 -45.23 26.91c-22.25-21.88-22-48.3-21.99-48.93v-.01a65.191 65.191 0 0 0 15.77-8.3c5.9-4.2 16.15-9.66 32.85-13.59l.01-.01c1.06-.24 2.14-.48 3.25-.72a63.424 63.424 0 0 0 38.04-24.38 167.806 167.806 0 0 0 12.14-19.02 79.651 79.651 0 0 0 5.51-12.09c1.77-5.27 8.87-11.11 16.27-13.32 9.64-2.88 19.79.37 19.33 18.99a47.275 47.275 0 0 1 -1.83 13.2c-2.93 9.24-9.31 12.48-18.78 24.65z" fill="#6d7486"/><path d="m290.26 258.29s12.61 9.32 15.15 19.05c-16.41 6.93-24.04 15.72-24.04 15.72-51.24 56.39 9.56 82.3 9.56 82.3v.01q-3.765 1.455-7.4 3.27c-66.17 33.04-78.69-60.41-78.69-60.41a166.557 166.557 0 0 1 45.23-26.91 85.245 85.245 0 0 0 40.19-33.03z" fill="#d8ddea"/><path d="m296.67 92.07s-27.13 6.26-43.18-31.4c1.78-.77 3.46-1.58 5.06-2.42l.01.03s33.43 3.61 38.11 33.79z" fill="#d0db65"/><path d="m253.49 60.67a100.3 100.3 0 0 1 -19.93 6.18 78.27 78.27 0 0 0 12.45-19.84c5.67-9.56 20.2-26.4 42.39-26.47 0 0-1.99 23.15-29.85 37.71-1.6.84-3.28 1.65-5.06 2.42z" fill="#81c83d"/><path d="m244.48 11c8.26 11.98 6.05 25.36 1.53 36.01a78.27 78.27 0 0 1 -12.45 19.84c-14.26-38.59 10.92-55.85 10.92-55.85z" fill="#a7d861"/><path d="m209.74 76.13a28.15 28.15 0 0 1 21.38 33.55 27.537 27.537 0 0 1 -12.95 18.32 75.439 75.439 0 0 0 -38.93-7.48c-3.87-6.07-4.64-15.36-2.97-22.95a28.123 28.123 0 0 1 22.65-21.69h.01a27.8 27.8 0 0 1 10.81.25z" fill="#6d7486"/><path d="m115.65 210.73h-.01c-5.13 5.62-12.49 8.6-20.69 8.6a28.15 28.15 0 0 1 0-56.3c7.75 0 16.14 2.98 21.22 8.07-3.12 10.9-4.16 24.15-.52 39.63z" fill="#6d7486"/><path d="m170.6 194.84c0 14.27 3.78 34.21-14.22 42.02a10.858 10.858 0 0 1 -14.41-6.19c-14.64-38.59 4.83-49.02 11.58-51.39a9.077 9.077 0 0 1 4.41-.44c4.17.64 12.64 3.49 12.64 16z" fill="#6d7486"/><path d="m232.83 156.37a10.9 10.9 0 0 1 3.82 15.23c-10.54 16.58-29.59 9.69-43.65 7.43-12.33-1.98-13.79-10.81-13.76-15.04a9.094 9.094 0 0 1 1.13-4.29c3.41-6.31 16.76-23.93 52.46-3.33z" fill="#6d7486"/><path d="m153.79 201.98a4.085 4.085 0 1 1 -4.07 4.08 4.076 4.076 0 0 1 4.07-4.08z" fill="#4a5160"/><path d="m213.25 164.66a4.07 4.07 0 1 0 -4.07 4.09 4.076 4.076 0 0 0 4.07-4.09z" fill="#4a5160"/><path d="m222.53 209.2c9.5 36.53-28.74 23.07-28.74 23.07 7.96-8.1 6.71-23.81 6.66-24.34l.01-.01c9.96 4.55 17.09 3.83 22.07 1.28z" fill="#caced8"/><path d="m201.65 193.7c-4.42 1.17-6.18.95-10.78 3.85-2.64 1.66-4.21 6.22-5.38 8.96a2.55 2.55 0 0 0 2.7 3.52l11.03-1.57a2.481 2.481 0 0 0 1.23-.53h.038l-.028-.012a2.522 2.522 0 0 0 .8-1.14l3.43-9.77a2.54 2.54 0 0 0 -3.04-3.308z" fill="#6d7486"/><path d="m295.98 141.06c12.15 8.45 19.12 22.26 4.64 25.82-13.52 3.31-18.65-2.09-19.86-9.11a28.62 28.62 0 0 1 .62-11.1 9.486 9.486 0 0 1 14.6-5.61z" fill="#6d7486"/><path d="m386.9 307.23c6.11 9.66 10.84 27.24.09 28.92a6.176 6.176 0 0 1 -6.92-5.58c-2.39-21.59-21.3-20.02-3.32-28.08.27-.12.56-.25.86-.38a5.6 5.6 0 0 1 6.38 1.3 26.842 26.842 0 0 1 2.91 3.82z" fill="#5f636d"/><path d="m210.9 254.136a70.163 70.163 0 0 0 -12.282 6.854 65.191 65.191 0 0 1 -15.77 8.3v.01c-.01.63-.26 27.05 21.99 48.93a157.184 157.184 0 0 1 26.807-18.218 73.447 73.447 0 0 1 -20.745-45.876z" fill="#585e6b"/><path d="m232.177 299.726a157.9 157.9 0 0 0 -27.337 18.5s12.52 93.45 78.69 60.41q3.63-1.815 7.4-3.27v-.01s-.722-.308-1.942-.929c-41.449 4.526-54.241-58.666-56.811-74.701z" fill="#c1c7d3"/><g fill="#284268"><path d="m434.125 453.927c-.866-14-6.416-26.408-9.646-32.56a77.834 77.834 0 0 1 -5.028-11.98c-11.2-34.26-21.772-60.586-25.967-70.71a11.751 11.751 0 0 0 3.508-4.474c3.949-8.7-1.343-22.495-5.864-29.647a32.954 32.954 0 0 0 -3.432-4.5 10.471 10.471 0 0 0 -8.205-3.412 127.791 127.791 0 0 0 -7.551-11.574 15.617 15.617 0 0 0 7.377-10.429c2.777-14.192-4.851-25.626-20.928-31.373a14.659 14.659 0 0 0 -9.635-.062l-2.643-4.658c48.891-6.986 57.243-41.4 57.589-42.936a5 5 0 0 0 -4.261-6.064c-10.807-1.337-21.591 1.214-32.068 7.59-.982.6-1.922 1.215-2.837 1.838a35.965 35.965 0 0 0 -3.637-21.765 5 5 0 0 0 -6.8-2.113 44.64 44.64 0 0 0 -14.525 14.068 51.388 51.388 0 0 0 -8.154 23.5l-1.856-3.27a58.1 58.1 0 0 0 1.45-12.415c.488-19.862-10.35-23.919-15.032-24.742a21.616 21.616 0 0 0 -7-.016c-.5-.879-1-1.816-1.483-2.76a12.308 12.308 0 0 0 6.031-8.358c1.69-9.1-6.859-18.7-14.693-24.149a14.41 14.41 0 0 0 -13.377-1.633c-.018.007-.034.017-.052.024-10.955-15.28-19-26-25.167-33.516a127.669 127.669 0 0 1 -18.1-29.261c-.356-.8-.718-1.581-1.083-2.341q5.292-1.4 9.9-3.113c5.337 10.8 14.241 22.988 28.416 28.077a38.039 38.039 0 0 0 12.816 2.286 26.273 26.273 0 0 0 5.605-.528 5 5 0 0 0 3.818-5.637c-3.073-19.84-17.755-30.332-30.416-35.03 20.152-15.137 22.09-34.181 22.187-35.311a5 5 0 0 0 -1.3-3.814 5.117 5.117 0 0 0 -3.694-1.613c-13.293.041-24.651 5.609-33.37 13.106a36.073 36.073 0 0 0 -6.418-20.489 5 5 0 0 0 -6.944-1.287 42.287 42.287 0 0 0 -12.466 15.365c-3.281 6.642-6.144 16.558-4.5 29.661-4.476-2.942-9.677-10.692-14.2-21.293a13.31 13.31 0 0 0 -13.854-7.974l-14.757 1.874a13.257 13.257 0 0 0 -10.079 19.278q10.632 20.432 17.963 29.774a33.7 33.7 0 0 0 -3.882 2.131 32.939 32.939 0 0 0 -14.494 20.8 40.739 40.739 0 0 0 .609 19.877c-2.848.464-5.511 1.048-7.958 1.7a82.374 82.374 0 0 0 -27.307 12.7c-.44.331-10.888 8.272-18.991 23.323a78.057 78.057 0 0 0 -4.087 8.887 38 38 0 0 0 -18.7-4.955 33.151 33.151 0 0 0 0 66.3 33.9 33.9 0 0 0 17.928-4.879l1.485 4.576c10.077 30.768 17.631 53.85 47.535 53.847a72.654 72.654 0 0 0 10.811-.868q2.807-.425 5.6-1.121a78.719 78.719 0 0 0 21.833 44.721c1.484 9.1 9.664 50.715 36.977 65.187a42.217 42.217 0 0 0 20.063 4.942c8.869 0 18.422-2.539 28.579-7.609a89.066 89.066 0 0 1 15.036-5.82c9.345-2.7 16.291-6.312 20.647-10.732 2.741-2.782 5.057-5.557 7.3-8.241 6.142-7.361 10.579-12.68 19.346-13.252.972-.063 2.1-.182 3.406-.32 2.237-.235 5.826-.526 8.715-.586 12.137 27.405 28.241 67.734 28.03 88.336a34.821 34.821 0 0 0 .177 5.645q-4.685-1.418-9.042-2.325c1.293-12.025.3-27.316-9.115-39.748a37.982 37.982 0 0 0 -14.679-12.013 5 5 0 0 0 -6.429 2.647c-8.11 18.593-.919 36.081 7.5 47.317-24.974 1.608-37.282 15.395-38 16.231a5 5 0 0 0 1.11 7.494 45.177 45.177 0 0 0 24.534 6.814 61.059 61.059 0 0 0 10.882-1.024 38.015 38.015 0 0 0 -5.783 21.836 5 5 0 0 0 4.887 4.809h.186a43.5 43.5 0 0 0 19.324-5.273c7.1-3.808 15.867-11.024 21.723-24.552.194.363.388.726.592 1.092 6 10.771 7.858 27.04 8.434 35.779a9.364 9.364 0 0 0 13.81 7.632l17.32-9.358a9.369 9.369 0 0 0 4.448-11.211 124.109 124.109 0 0 1 -5.998-30.37zm-323.948-244.856a23.277 23.277 0 1 1 -15.23-41.043 27.31 27.31 0 0 1 15.618 4.855 82.961 82.961 0 0 0 -.388 36.188zm269.436 97.623a.623.623 0 0 1 .671.07 23.01 23.01 0 0 1 2.391 3.134c4.377 6.925 6.861 16.538 5.212 20.169a1.8 1.8 0 0 1 -1.662 1.138.787.787 0 0 1 -.642-.184 1.483 1.483 0 0 1 -.548-1c-1.243-11.225-6.445-17.19-9.552-20.753-.112-.13-.233-.268-.356-.41.909-.51 2.315-1.215 4.486-2.164zm-23.006-86.884a62.281 62.281 0 0 1 15.962-14.133 41.831 41.831 0 0 1 19.051-6.4c-4.118 8.167-14.819 22.567-40.362 28.165a81.808 81.808 0 0 0 5.349-7.632zm-2.476-32.426c3.514 14.08-5.885 28.259-12.8 36.371-1.763-19.897 7.034-31.198 12.8-36.371zm-13.331 62.06a14.854 14.854 0 0 0 -1.309 2.64 44.069 44.069 0 0 1 -1.827 4.231 18.8 18.8 0 0 1 -5.881 6.866l-20.112-28.3c2.384-2.855 4.564-5.18 6.562-7.309a79.819 79.819 0 0 0 6.148-7.059zm-18.646 17.456a107.837 107.837 0 0 0 -13.968 3.985c-3.029-5.765-8-10.73-11.4-13.716.231-.4.475-.793.7-1.2 2.81-5.054 5.419-9.211 7.853-12.736zm-35.911-119.067a4.453 4.453 0 0 1 2.779-3.172 4.5 4.5 0 0 1 1.6-.3 4.37 4.37 0 0 1 2.5.8c7.217 5.024 11.108 11.238 10.573 14.115-.287 1.55-2.8 2.388-4.273 2.749-4 .98-9.3 1.62-11.841-.909-2.681-2.669-2.451-8.611-1.338-13.283zm-5.707 20.376c3.134 3.112 7.374 4.674 12.659 4.674a31.932 31.932 0 0 0 4.641-.373c.485.976.994 1.975 1.524 2.968-6.535 3.429-11.919 8.867-13.676 14.113-.335 1-.787 2.158-1.33 3.428l-12.563-19.919a33.369 33.369 0 0 0 -1.1-6.109 28.654 28.654 0 0 0 7.388-2.015 15.276 15.276 0 0 0 2.457 3.233zm-1.445 35.213a164.929 164.929 0 0 1 -10.349 15.9 57.944 57.944 0 0 1 -23.86 18.9 62.375 62.375 0 0 0 4.885-15.022c1.008-5.037 4.751-9.353 8.713-13.921 4.038-4.654 8.213-9.468 10.333-15.774.5-1.49.917-2.926 1.294-4.337zm11.346-116c-7.074-.491-20.1-4.289-30.042-23.769 6.485 1.315 24.372 6.464 30.042 23.765zm-40.417-37.102c.141-.313.26-.623.395-.936 2.365-3.931 13.076-20.03 31.534-23.273-2.915 8.411-11.471 23.544-36.11 32.194a77.9 77.9 0 0 0 4.181-7.985zm-6.864-31.275c5.295 13.364-1.946 28.169-7.642 36.873-4.277-19.301 2.719-31.218 7.642-36.873zm-12.5 52.775q1.19 2.2 2.342 4.788a137.669 137.669 0 0 0 19.511 31.558c6.136 7.484 14.235 18.284 25.365 33.826a14.467 14.467 0 0 0 -1.354 3.523 37.155 37.155 0 0 0 -1.01 9.628 18.5 18.5 0 0 1 -9.384 2.106 50.98 50.98 0 0 0 -8.469-9.508l-21.287-38.9a33.237 33.237 0 0 0 -13.059-31.9 32.583 32.583 0 0 0 7.341-5.121zm8.215 62.424c-3.313-2.072-6.782-4.17-10.375-6.341-.4-.243-.8-.471-1.208-.706a31.912 31.912 0 0 0 4.523-5.854zm-58.2-95.072a3.248 3.248 0 0 1 0-3.029 3.215 3.215 0 0 1 2.462-1.714l14.759-1.874a3.279 3.279 0 0 1 3.4 1.979c4.35 10.189 11.478 23.194 20.739 27.294a10.29 10.29 0 0 1 2.671 1.813c-4.886 5.29-12.571 7.007-14.868 7.417a33.06 33.06 0 0 0 -9.427-.426c-3.515-3.409-10.155-13.041-19.74-31.46zm.483 59.471a23.094 23.094 0 1 1 36.56 23.663 80.755 80.755 0 0 0 -35.5-6.937 29.56 29.56 0 0 1 -1.064-16.726zm-9.932 168.468c-29.529 4.467-35.511-10.034-47.355-46.2l-1.12-3.415c-16.536-50.31 18.5-77.6 20.049-78.775a73.72 73.72 0 0 1 24.191-11.089 71.984 71.984 0 0 1 18.157-2.377c13.05 0 25.834 3.744 38.18 11.2 32 19.335 44.642 28.2 36.015 53.862-1.491 4.435-4.851 8.308-8.408 12.409-4.641 5.35-9.439 10.882-10.966 18.513-2.854 14.269-8.856 20.083-10.615 21.521-17.1 4.146-27.658 9.9-33.628 14.147a57.516 57.516 0 0 1 -24.504 10.204zm16.819 5.5a71.194 71.194 0 0 0 13.479-7.551c5.69-4.048 16.252-9.678 34.256-13.5a68.4 68.4 0 0 0 41.024-26.313c8.358-11.376 15.567-24.125 18.365-32.48 1.591-4.752 11.818-11.955 19.087-10.684 4.707.827 6.983 5.755 6.765 14.646-.335 13.622-3.187 16.66-10.078 24-5.491 5.848-13.011 13.859-22.2 30.38a80.417 80.417 0 0 1 -40.519 35.561 176.2 176.2 0 0 0 -42.971 24.73 69.337 69.337 0 0 1 -17.212-38.788zm53.785 104.344c-21.942-11.61-29.77-46.758-31.582-56.732a166.439 166.439 0 0 1 41.674-24.259 90.543 90.543 0 0 0 39.332-30.31 42.393 42.393 0 0 1 7.682 9.132c-13.72 6.65-20.545 14.1-21.286 14.942-17.5 19.277-24.528 37.531-20.873 54.254 3.333 15.251 14.765 25.357 23.071 30.878-14.666 6.969-27.455 7.689-38.022 2.096zm91-76.586c-3.791 37.573-10.088 49.188-10.826 50.437q-.466.556-.931 1.114c-2.109 2.527-4.29 5.141-6.74 7.628-3.05 3.1-8.84 5.987-16.3 8.143-2.324.672-4.588 1.437-6.814 2.25-5.264-2.7-21.2-12.094-24.679-28.15-2.9-13.374 3.344-28.639 18.609-45.439a51.462 51.462 0 0 1 9.935-7.967 89.3 89.3 0 0 1 31.012-12.112 29.032 29.032 0 0 0 20.508-15.473 54.112 54.112 0 0 0 2.245-5.187 4.906 4.906 0 0 1 6.179-2.935c11.412 4.079 16.284 10.82 14.481 20.037a5.654 5.654 0 0 1 -2.818 3.857 71.794 71.794 0 0 1 -7.5 3.138c-10.663 4.07-25.259 9.642-26.37 20.66zm33.549-5.816a165.691 165.691 0 0 1 -18.735 9.723 30.4 30.4 0 0 0 -4.9-2.59c.011-.106.022-.207.033-.313.488-4.831 12.911-9.62 19.769-12.238 1.249 1.719 2.572 3.584 3.824 5.419zm-10.6 39.768c-1.93.133-3.756.322-5.329.488-1.164.124-2.188.233-3.006.287a28.376 28.376 0 0 0 -10.451 2.642 238.455 238.455 0 0 0 4.535-25.482 21.133 21.133 0 0 1 8.142 9.014c1.536 3.206 3.657 7.693 6.118 13.068zm.695 61.843c5.922 4.554 15.161 15.328 13.088 37.424-4.934-4.98-17.413-19.705-13.094-37.423zm-25.024 56.25c7.075-4.837 21.415-11.359 43.878-7.19-1.361.765-2.76 1.6-4.177 2.534-5.854 2.933-23.564 10.535-39.707 4.657zm28.238 27.16c2.685-17.578 21.453-26.662 28.993-29.635-6.565 21.974-21.158 27.994-28.999 29.636zm39.316-38.364a32.219 32.219 0 0 1 -.789-8.007c.014-.138.021-.275.023-.414.409-29.223-27.526-90.745-39.555-115.84a31.979 31.979 0 0 0 -3.189-5.274c2.722-1.278 5.733-2.752 8.641-4.3-.48 3.528 1.794 6.141 3.817 8.46 2.638 3.025 6.251 7.169 7.15 15.283a11.508 11.508 0 0 0 4.411 7.844 10.914 10.914 0 0 0 4.077 1.952c3.535 8.451 14.584 35.552 26.362 71.579a88.032 88.032 0 0 0 5.679 13.523 83.717 83.717 0 0 1 4.432 10 35.97 35.97 0 0 1 -21.059 5.194zm15.444 54.4c-.707-9.778-2.888-26.946-9.608-39.014a59.337 59.337 0 0 1 -2.624-5.323 46.425 46.425 0 0 0 20.716-5.4 58.737 58.737 0 0 1 1.219 8.674 134.3 134.3 0 0 0 6.311 32.411z"/><path d="m209.178 173.746a9.082 9.082 0 1 0 -9.073-9.081 9.087 9.087 0 0 0 9.073 9.081z"/><path d="m175.756 201.1c-.079-2.213-.154-4.3-.154-6.26 0-17.016-12.918-20.326-16.878-20.936a14.15 14.15 0 0 0 -6.832.662 29.443 29.443 0 0 0 -17.025 15.43c-4.994 10.751-4.177 25.034 2.431 42.452a16.043 16.043 0 0 0 8.725 9.05 15.767 15.767 0 0 0 6.137 1.256 15.567 15.567 0 0 0 6.209-1.3c18.547-8.054 17.877-26.726 17.387-40.354zm-21.369 31.181a5.624 5.624 0 0 1 -4.475 0 5.918 5.918 0 0 1 -3.265-3.383c-5.536-14.595-6.474-26.591-2.711-34.692a19.493 19.493 0 0 1 11.276-10.206 4.11 4.11 0 0 1 1.991-.212c8.4 1.293 8.4 8.639 8.4 11.053 0 2.137.078 4.313.161 6.618.551 15.391.058 25.853-11.377 30.818z"/><path d="m192.2 183.967c1.928.309 3.974.715 6.141 1.143 5.3 1.049 11.388 2.253 17.476 2.253 9.243 0 18.5-2.775 25.051-13.076a15.612 15.612 0 0 0 1.987-12.208 16.057 16.057 0 0 0 -7.53-10.042c-16.1-9.286-30.034-12.361-41.417-9.138a29.441 29.441 0 0 0 -17.942 14.419 14.228 14.228 0 0 0 -1.73 6.642c-.022 4.013 1.195 17.314 17.964 20.007zm-7.438-21.893a19.5 19.5 0 0 1 11.871-9.553 23.615 23.615 0 0 1 6.455-.843c7.623 0 16.893 3.053 27.24 9.021a5.936 5.936 0 0 1 2.815 3.762 5.7 5.7 0 0 1 -.713 4.459c-6.7 10.528-17.08 9.362-32.149 6.38-2.257-.446-4.39-.868-6.5-1.206-2.376-.382-9.606-1.542-9.55-10.069a4.147 4.147 0 0 1 .535-1.951z"/><path d="m223.273 234.593c5.312-4.884 6.949-12.637 4.911-23.06a28.629 28.629 0 0 0 9.418-13.219 5 5 0 0 0 -9.554-2.953c-.022.07-2.3 6.981-8.468 9.711-3.44 1.521-7.612 1.537-12.44.066l2.273-6.473a7.542 7.542 0 0 0 -9.036-9.8c-1 .265-1.859.452-2.642.624a25.215 25.215 0 0 0 -9.537 3.829c-3.639 2.3-5.49 6.816-6.842 10.115-.161.4-.315.771-.462 1.116a7.542 7.542 0 0 0 6.939 10.5 7.718 7.718 0 0 0 1.059-.075l6.557-.933c-.362 4.864-1.654 11.094-5.227 14.728-2.406 2.449-5.683 3.491-10.018 3.176a5 5 0 1 0 -.714 9.975q1.114.079 2.19.08a21.573 21.573 0 0 0 13.263-4.147 49.941 49.941 0 0 0 12.83 1.857c5.437.004 11.227-1.186 15.5-5.117zm-26.233-30.874-5.23.743a7.974 7.974 0 0 1 1.724-2.684 14.814 14.814 0 0 1 4.962-2.2zm8.338 11.324a28.835 28.835 0 0 0 13.383.693c.622 4.505.385 9.06-2.248 11.489-3.213 2.964-9.529 2.775-14.623 1.912a41.252 41.252 0 0 0 3.488-14.094z"/><ellipse cx="153.79" cy="206.064" rx="9.072" ry="9.082"/></g></g></svg>